<svg width="40" height="40" viewBox="0 0 40 40" fill="none" xmlns="http://www.w3.org/2000/svg">
<path d="M35.5556 6.66667H4.44444C3.85507 6.66667 3.28984 6.9008 2.8731 7.31755C2.45635 7.73429 2.22222 8.29952 2.22222 8.88889V31.1111C2.22222 31.7005 2.45635 32.2657 2.8731 32.6825C3.28984 33.0992 3.85507 33.3333 4.44444 33.3333H35.5556C36.1449 33.3333 36.7102 33.0992 37.1269 32.6825C37.5437 32.2657 37.7778 31.7005 37.7778 31.1111V8.88889C37.7778 8.29952 37.5437 7.73429 37.1269 7.31755C36.7102 6.9008 36.1449 6.66667 35.5556 6.66667V6.66667ZM33.8444 31.1111H6.28889L14.0667 23.0667L12.4667 21.5222L4.44444 29.8222V10.5778L18.2556 24.3222C18.6719 24.7361 19.2351 24.9684 19.8222 24.9684C20.4093 24.9684 20.9725 24.7361 21.3889 24.3222L35.5556 10.2333V29.6778L27.3778 21.5L25.8111 23.0667L33.8444 31.1111ZM5.9 8.88889H33.7556L19.8222 22.7444L5.9 8.88889Z" fill="black"/>
</svg>
