<svg width="40" height="40" viewBox="0 0 40 40" fill="none" xmlns="http://www.w3.org/2000/svg">
<path d="M20 3.32999C29.2067 3.32999 36.67 10.7933 36.67 20C36.67 20.6517 36.6317 21.295 36.5583 21.9283C35.8625 21.2149 35.0553 20.6194 34.1683 20.165V20C34.1683 18.8517 34.0333 17.735 33.775 16.6667H28.1783C28.2617 17.53 28.3117 18.4167 28.3283 19.3183C27.4467 19.4817 26.61 19.7683 25.835 20.165V20C25.835 18.8483 25.775 17.7333 25.6617 16.665H14.3383C14.0452 19.4405 14.1208 22.2427 14.5633 24.9983H21.4583C21.1457 25.7998 20.9482 26.6415 20.8717 27.4983H15.1C16.1867 31.5233 18.0767 34.1683 20 34.1683C20.7567 34.1683 21.51 33.7567 22.21 33.0117C22.8117 34.0383 23.5967 35.0483 24.5417 36.0417C23.0967 36.45 21.5733 36.6683 19.9983 36.6683C10.7933 36.6683 3.33333 29.205 3.33333 20C3.33167 10.7933 10.7933 3.32999 20 3.32999ZM12.5133 27.5H7.97667C9.5861 30.0742 11.9772 32.0658 14.8 33.1833C13.93 31.8167 13.2117 30.1067 12.6833 28.1583L12.5133 27.5V27.5ZM11.8233 16.665H6.22667L6.21833 16.6933C5.96084 17.7766 5.83162 18.8865 5.83333 20C5.83333 21.76 6.15333 23.445 6.74 25H12.0283C11.7843 23.3446 11.6634 21.6733 11.6667 20C11.6667 18.86 11.72 17.7433 11.825 16.665H11.8233ZM14.8017 6.81499L14.7633 6.82832C11.3514 8.19039 8.59916 10.8202 7.08333 14.1667H12.1633C12.6867 11.2467 13.5967 8.70332 14.8017 6.81665V6.81499ZM20.0017 5.82999L19.8067 5.83832C17.7 6.03332 15.6617 9.36832 14.7167 14.1667H25.2867C24.3433 9.38332 22.315 6.05165 20.2117 5.84165L20 5.82999H20.0017ZM25.2017 6.81332L25.3783 7.10499C26.495 8.95832 27.34 11.3917 27.8367 14.1667H32.9167C31.4698 10.9735 28.8944 8.4272 25.685 7.01665L25.2017 6.81499V6.81332ZM37.5 28.3333C37.5 26.3442 36.7098 24.4365 35.3033 23.03C33.8968 21.6235 31.9891 20.8333 30 20.8333C28.0109 20.8333 26.1032 21.6235 24.6967 23.03C23.2902 24.4365 22.5 26.3442 22.5 28.3333C22.5 31.4383 24.865 34.6917 29.5 38.1667C29.6442 38.2748 29.8197 38.3333 30 38.3333C30.1803 38.3333 30.3557 38.2748 30.5 38.1667C35.1333 34.6917 37.5 31.4383 37.5 28.3333ZM27.5 28.3333C27.4914 27.9997 27.5497 27.6677 27.6714 27.357C27.7931 27.0462 27.9758 26.763 28.2087 26.524C28.4416 26.285 28.7201 26.095 29.0276 25.9653C29.3351 25.8356 29.6654 25.7688 29.9992 25.7688C30.3329 25.7688 30.6633 25.8356 30.9708 25.9653C31.2783 26.095 31.5567 26.285 31.7896 26.524C32.0225 26.763 32.2052 27.0462 32.327 27.357C32.4487 27.6677 32.5069 27.9997 32.4983 28.3333C32.4983 28.9964 32.2349 29.6322 31.7661 30.1011C31.2973 30.5699 30.6614 30.8333 29.9983 30.8333C29.3353 30.8333 28.6994 30.5699 28.2306 30.1011C27.7617 29.6322 27.4983 28.9964 27.4983 28.3333H27.5Z" fill="black"/>
</svg>
