<svg width="40" height="40" viewBox="0 0 40 40" fill="none" xmlns="http://www.w3.org/2000/svg">
<g clip-path="url(#clip0_101_2)">
<path fill-rule="evenodd" clip-rule="evenodd" d="M29.025 23.97C28.5283 23.7217 26.0933 22.525 25.64 22.3584C25.1867 22.1934 24.8567 22.1117 24.525 22.6084C24.195 23.1017 23.2467 24.2184 22.9583 24.5484C22.6683 24.88 22.38 24.92 21.885 24.6734C21.39 24.4234 19.7933 23.9017 17.9017 22.215C16.43 20.9017 15.435 19.28 15.1467 18.7834C14.8583 18.2884 15.115 18.02 15.3633 17.7734C15.5867 17.5517 15.8583 17.195 16.1067 16.9067C16.355 16.6167 16.4367 16.41 16.6017 16.0784C16.7683 15.7484 16.685 15.46 16.56 15.2117C16.4367 14.9634 15.4467 12.525 15.0333 11.5334C14.6317 10.5684 14.2233 10.7 13.92 10.6834C13.63 10.67 13.3 10.6667 12.97 10.6667C12.64 10.6667 12.1033 10.79 11.65 11.2867C11.195 11.7817 9.91667 12.98 9.91667 15.4184C9.91667 17.855 11.69 20.21 11.9383 20.5417C12.1867 20.8717 15.43 25.875 20.3983 28.02C21.5817 28.53 22.5033 28.835 23.2217 29.0617C24.4083 29.44 25.4883 29.3867 26.3417 29.2584C27.2917 29.1167 29.2717 28.06 29.685 26.9034C30.0967 25.7467 30.0967 24.755 29.9733 24.5484C29.85 24.3417 29.52 24.2184 29.0233 23.97H29.025ZM19.9883 36.3084H19.9817C17.0307 36.3089 14.134 35.5156 11.595 34.0117L10.995 33.655L4.75833 35.2917L6.42333 29.2117L6.03167 28.5884C4.3819 25.9623 3.50882 22.923 3.51333 19.8217C3.51667 10.7384 10.9067 3.34837 19.995 3.34837C24.395 3.34837 28.5317 5.06504 31.6417 8.17837C33.1756 9.70601 34.3915 11.5226 35.2188 13.5232C36.0461 15.5238 36.4686 17.6685 36.4617 19.8334C36.4583 28.9167 29.0683 36.3084 19.9883 36.3084V36.3084ZM34.0083 5.81337C32.172 3.96491 29.9871 2.49927 27.5801 1.50137C25.1732 0.503477 22.5922 -0.00682426 19.9867 3.77783e-05C9.06333 3.77783e-05 0.17 8.8917 0.166667 19.82C0.165 23.3134 1.07667 26.7234 2.81167 29.7284L0 40L10.5067 37.2434C13.4131 38.8269 16.6702 39.6566 19.98 39.6567H19.9883C30.9117 39.6567 39.805 30.765 39.8083 19.835C39.8164 17.2305 39.3079 14.6502 38.3124 12.2434C37.3168 9.83665 35.8539 7.65115 34.0083 5.81337" fill="black"/>
</g>
<defs>
<clipPath id="clip0_101_2">
<rect width="40" height="40" fill="white"/>
</clipPath>
</defs>
</svg>
